<svg width="114" height="22" viewBox="0 0 114 22" fill="none" xmlns="http://www.w3.org/2000/svg">
<path d="M8.31265 22C7.86503 22 7.49997 21.6706 7.49997 21.2674V15.1551H0.81266C0.365069 15.1551 0 14.8271 0 14.4224V0.732628C0 0.329402 0.365069 0 0.81266 0H15.3384C15.786 0 16.1497 0.329402 16.1497 0.732628V6.83782H22.837C23.286 6.83782 23.6497 7.16578 23.6497 7.57042V21.2603C23.6497 21.6635 23.286 21.9929 22.837 21.9929L8.31265 22ZM9.12528 14.191L9.14208 14.2521C9.1719 14.3666 9.1719 14.4869 9.14208 14.6013L9.12528 14.661V20.5376H22.0244V8.31441H16.1497V17.5574C16.1422 17.7288 16.0774 17.8924 15.966 18.0214C15.8547 18.1504 15.7034 18.2372 15.5371 18.2673C15.4718 18.2821 15.4052 18.2896 15.3384 18.29C15.1924 18.2921 15.0484 18.2555 14.9206 18.1838C14.7928 18.1121 14.6856 18.0077 14.6097 17.8811L9.12528 7.91543V14.191ZM8.31265 4.06066C8.45853 4.05842 8.60246 4.09482 8.73024 4.16628C8.85802 4.23774 8.96525 4.34179 9.04136 4.46815L14.5258 14.4338V1.47093H1.62532V13.6941H7.49997V4.79329C7.50723 4.62185 7.57191 4.45806 7.68331 4.32899C7.79472 4.19992 7.94613 4.11328 8.11261 4.08338C8.17804 4.06661 8.24516 4.05755 8.31265 4.0564V4.06066Z" fill="url(#paint0_linear_861_13107)"/>
<path d="M34.2269 5.38965C35.4466 5.38965 36.4257 5.78057 37.1642 6.5624C37.9027 7.34428 38.2706 8.4044 38.2678 9.74277V16.2299H36.4537V9.84078C36.4537 8.99642 36.2247 8.33384 35.7669 7.85303C35.3091 7.37216 34.6778 7.13269 33.873 7.13462C32.9405 7.13462 32.2048 7.42661 31.6658 8.01066C31.1269 8.59465 30.8564 9.46453 30.8546 10.6202V16.22H29.0432V5.66084H30.8546V7.18148C31.5744 5.98693 32.6986 5.38965 34.2269 5.38965Z" fill="#1B232F"/>
<path d="M49.2133 14.8981C48.1587 15.9687 46.8611 16.5039 45.3206 16.5039C43.7802 16.5039 42.4831 15.9687 41.4294 14.8981C40.3729 13.8276 39.8456 12.5105 39.8474 10.9468C39.8493 9.38313 40.3766 8.06599 41.4294 6.99547C42.4821 5.92588 43.7793 5.3906 45.3206 5.38965C46.862 5.3887 48.1596 5.92396 49.2133 6.99547C50.2402 8.04641 50.8164 9.46662 50.8164 10.9468C50.8164 12.427 50.2402 13.8472 49.2133 14.8981ZM45.3206 14.7079C46.1581 14.6991 46.9668 14.3964 47.6093 13.8511C48.2519 13.3058 48.6888 12.5516 48.8458 11.7166C49.0027 10.8815 48.8702 10.017 48.4705 9.26988C48.0709 8.52276 47.4289 7.93899 46.6534 7.61779C45.878 7.29659 45.017 7.25771 44.2165 7.50774C43.416 7.75777 42.7254 8.28131 42.262 8.98949C41.7986 9.69762 41.5909 10.5468 41.6742 11.3927C41.7576 12.2386 42.1267 13.0292 42.719 13.6302C43.0581 13.9794 43.4636 14.255 43.9108 14.4402C44.3581 14.6254 44.8377 14.7165 45.3206 14.7079Z" fill="#1B232F"/>
<path d="M58.0417 5.66138V7.43618H55.2704V13.1623C55.2704 13.6838 55.3713 14.0535 55.5729 14.2711C55.774 14.4888 56.0831 14.6015 56.4989 14.6091C56.9147 14.6167 57.4275 14.6062 58.0374 14.5778V16.2262C56.4408 16.4383 55.2791 16.3043 54.5516 15.8244C53.8243 15.3445 53.4597 14.4572 53.4579 13.1623V7.43618H51.3989V5.66138H53.4592V3.24771L55.2775 2.69824V5.66138H58.0417Z" fill="#1B232F"/>
<path d="M69.2993 11.7929H60.5783C60.7193 12.6562 61.1714 13.4355 61.8469 13.9794C62.5137 14.5076 63.3464 14.7717 64.3449 14.7717C65.7187 14.7717 66.7178 14.2577 67.3423 13.2298L68.8813 14.1172C67.8551 15.7093 66.3291 16.5048 64.3016 16.5038C62.6649 16.5038 61.3189 15.9833 60.2634 14.9421C59.2377 13.8715 58.7249 12.5402 58.7249 10.9481C58.7249 9.35604 59.2317 8.03087 60.2455 6.97267C61.2581 5.91535 62.569 5.38672 64.1785 5.38672C65.704 5.38672 66.946 5.9362 67.905 7.03515C68.8754 8.10567 69.3611 9.41566 69.3622 10.9652C69.3617 11.2423 69.3405 11.519 69.2993 11.7929ZM64.1785 7.12315C63.2217 7.12315 62.4204 7.39766 61.7742 7.94667C61.128 8.49562 60.7296 9.24247 60.5783 10.1871H67.5299C67.377 9.21409 66.9959 8.46015 66.386 7.92533C65.7734 7.38974 64.9868 7.10396 64.1785 7.12315Z" fill="#1B232F"/>
<path d="M72.2349 8.51695C72.2349 9.19279 72.9218 9.72096 74.2966 10.1014C74.7357 10.1943 75.1699 10.3109 75.5971 10.4508C76.0015 10.5929 76.3913 10.7731 76.7626 10.9889C77.1654 11.2087 77.501 11.538 77.7303 11.9401C78.0437 12.5506 78.138 13.2525 77.9976 13.9259C77.8572 14.5993 77.4907 15.2022 76.961 15.6316C76.2254 16.21 75.293 16.4987 74.1637 16.4977C73.2562 16.5218 72.3596 16.2914 71.573 15.8318C70.8769 15.4233 70.3343 14.7922 70.0291 14.0372L71.5898 13.1285C71.7519 13.63 72.0837 14.0567 72.5271 14.3325C73.021 14.6391 73.5918 14.7936 74.1708 14.7769C74.7964 14.7769 75.2962 14.6572 75.6697 14.4177C75.8503 14.3059 75.9972 14.1468 76.0958 13.9571C76.1945 13.7674 76.2406 13.5542 76.2292 13.3401C76.2292 12.6217 75.5423 12.101 74.1675 11.7783C73.7105 11.6505 73.3636 11.5525 73.1272 11.4815C72.7971 11.3748 72.474 11.2476 72.159 11.101C71.8197 10.9631 71.5063 10.7667 71.2331 10.5203C70.9994 10.2795 70.8059 10.0013 70.6612 9.69681C70.485 9.33964 70.3955 8.94474 70.4009 8.54533C70.3923 8.11265 70.4812 7.68365 70.6617 7.2915C70.8422 6.89935 71.1089 6.5545 71.4418 6.28357C72.1493 5.69298 73.0307 5.39715 74.0851 5.39621C74.8761 5.38204 75.6556 5.58303 76.3441 5.97832C76.9898 6.35144 77.5091 6.91486 77.8322 7.59405L76.3121 8.46014C75.9392 7.55808 75.1965 7.10752 74.0851 7.10851C73.6162 7.09152 73.1538 7.22462 72.7635 7.489C72.597 7.60104 72.461 7.75405 72.3688 7.93384C72.2761 8.11358 72.23 8.31422 72.2349 8.51695Z" fill="#1B232F"/>
<path d="M80.6658 3.74317C80.5037 3.74707 80.3422 3.71721 80.192 3.65543C80.0418 3.59365 79.9052 3.50126 79.7914 3.38395C79.677 3.27164 79.587 3.13669 79.5257 2.98747C79.465 2.83825 79.4352 2.67793 79.4379 2.51645C79.4357 2.3538 79.4661 2.19242 79.5268 2.04192C79.5875 1.89142 79.6775 1.75489 79.7914 1.64043C79.9036 1.51996 80.0391 1.42471 80.1898 1.36087C80.3405 1.29703 80.5026 1.26602 80.6658 1.26985C80.8257 1.26778 80.984 1.29968 81.1309 1.36351C81.2778 1.42733 81.4101 1.52166 81.5191 1.64043C81.6324 1.75508 81.7224 1.89166 81.7831 2.04211C81.8438 2.19256 81.8742 2.35384 81.8731 2.51645C81.8731 2.84155 81.7457 3.15335 81.5196 3.38336C81.293 3.61337 80.9862 3.74279 80.6658 3.74317ZM81.5597 16.2375H79.7496V5.66133H81.5597V16.2375Z" fill="#1B232F"/>
<path d="M92.6128 7.48206V5.66046H94.4088V15.7809C94.4088 17.3436 93.8884 18.5552 92.8475 19.4156C91.791 20.2893 90.4628 20.7533 89.1005 20.7246C87.9349 20.7246 86.9293 20.5032 86.0836 20.0602C85.2628 19.6425 84.5928 18.9734 84.1672 18.1477L85.7507 17.239C86.3183 18.4222 87.4492 19.0138 89.1427 19.0138C90.2253 19.0138 91.0748 18.7251 91.6923 18.1477C92.3098 17.5703 92.6182 16.7814 92.6182 15.7809V14.2815C91.7037 15.69 90.3983 16.3942 88.702 16.3942C87.9978 16.4102 87.2985 16.2755 86.6496 15.9988C86.0001 15.7221 85.4157 15.3097 84.9338 14.7884C84.4345 14.2732 84.0414 13.6622 83.7769 12.9912C83.5129 12.3201 83.3833 11.6023 83.3953 10.8797C83.3817 10.1598 83.5107 9.44468 83.7753 8.77659C84.0398 8.10851 84.4334 7.5012 84.9338 6.9908C85.4157 6.46978 86.0001 6.05761 86.6496 5.78091C87.2985 5.50426 87.9978 5.36938 88.702 5.38501C90.4075 5.38784 91.7113 6.08687 92.6128 7.48206ZM92.6128 10.8896C92.5944 10.0419 92.2875 9.22666 91.7454 8.58178C91.2028 7.93696 90.4574 7.50202 89.6355 7.35055C88.8137 7.19914 87.9658 7.34043 87.2345 7.75062C86.5032 8.16076 85.934 8.81465 85.6233 9.60165C85.3122 10.3887 85.2786 11.2606 85.5279 12.0699C85.7773 12.8792 86.2939 13.5763 86.9916 14.0433C87.6888 14.5103 88.5236 14.7186 89.3547 14.6329C90.1858 14.5472 90.9621 14.1728 91.5524 13.573C91.9021 13.223 92.1764 12.8035 92.3591 12.3408C92.5418 11.8781 92.628 11.3821 92.6128 10.8839V10.8896Z" fill="#1B232F"/>
<path d="M101.98 5.38937C103.202 5.38937 104.181 5.78028 104.917 6.5621C105.654 7.34398 106.022 8.40411 106.019 9.74254V16.2296H104.201V9.84049C104.201 8.99619 103.972 8.3336 103.514 7.85274C103.057 7.37187 102.425 7.13246 101.621 7.13433C100.688 7.13433 99.9532 7.42632 99.4149 8.01036C98.8771 8.59436 98.6071 9.46754 98.605 10.6299V16.2296H96.7981V1.43945H98.605V7.18542C99.3287 5.98807 100.454 5.38937 101.98 5.38937Z" fill="#1B232F"/>
<path d="M113.851 5.66138V7.43618H111.081V13.1623C111.081 13.6838 111.182 14.0535 111.383 14.2711C111.585 14.4888 111.893 14.6015 112.309 14.6091C112.726 14.6167 113.239 14.6062 113.848 14.5778V16.2262C112.251 16.4383 111.089 16.3043 110.361 15.8244C109.633 15.3445 109.268 14.4572 109.268 13.1623V7.43618H107.204V5.66138H109.266V3.24771L111.076 2.69824V5.66138H113.851Z" fill="#1B232F"/>
<defs>
<linearGradient id="paint0_linear_861_13107" x1="12.0752" y1="23.5944" x2="11.5852" y2="-0.407192" gradientUnits="userSpaceOnUse">
<stop stop-color="#49C6EC"/>
<stop offset="1" stop-color="#5966AE"/>
</linearGradient>
</defs>
</svg>
